<svg id="Capa_1" enable-background="new 0 0 511.907 511.907" fill="#8d8d8d" height="512" viewBox="0 0 511.907 511.907" width="512" xmlns="http://www.w3.org/2000/svg"><g><path d="m396.944 503.409c37.47-22.637 53.37-82.44 31.581-121.2-18.06-32.132-54.822-37.23-83.095-13.273-36.505 30.931-44.183 95.944-12.924 127.712 17.377 17.661 42.37 20.094 64.438 6.761z"/><path d="m166.477 368.936c-29.251-24.785-67.552-18.484-84.898 16.715-24.872 50.862 10.482 126.255 62.407 126.255 13.598 0 25.914-5.602 35.415-15.258 31.192-31.7 23.639-96.731-12.924-127.712z"/><path d="m420.533 109.026c17.087-27.952 12.822-63.967-10.245-87.603-29.108-29.825-76.024-28.238-103.39 3.074 48.874 11.138 89.632 39.624 113.635 84.529z"/><path d="m457.232 284.834-44.435-18.171c-71.731 88.344-241.9 88.411-313.685 0l-44.436 18.171c-26.041 10.651-38.563 40.497-27.917 66.527 4.932 12.069 14.048 21.463 25.288 26.8 23.541-56.855 87.564-71.311 133.824-32.114 43.442 36.809 56.581 107.968 27.567 155.436 24.946 2.028 60.047 2.031 85.033 0-29.262-47.875-15.5-118.945 27.567-155.436 46.286-39.219 110.3-24.703 133.824 32.114 11.24-5.336 20.356-14.729 25.286-26.796 10.648-26.033-1.875-55.879-27.916-66.531z"/><path d="m205.01 24.497c-27.362-31.308-74.288-32.893-103.39-3.074-22.993 23.56-27.378 59.577-10.245 87.603 23.598-44.149 63.838-73.181 113.635-84.529z"/><path d="m375.624 96.69c-19.499-21.757-56.088-47.692-119.67-47.692s-100.172 25.936-119.671 47.692c-22.453 25.054-35.33 59.063-35.33 93.308 0 31.213 16.835 60.187 47.403 81.585 59.859 41.901 155.305 41.922 215.193 0 30.568-21.398 47.403-50.372 47.403-81.585.002-34.245-12.875-68.254-35.328-93.308zm-152.74 48.788c-.885 8.526-8.477 14.263-16.4 13.45-7.859-.799-14.18-7.601-13.46-16.41.891-8.583 8.805-14.934 17.86-13.23 7.344 1.524 12.662 8.078 12 16.19zm59.676 57.126-16 16c-5.857 5.858-15.355 5.859-21.213 0l-16-16c-9.418-9.418-2.746-25.606 10.606-25.606h32c13.319 0 20.049 16.165 10.607 25.606zm36.324-57.126c-.874 8.425-8.403 14.288-16.4 13.45-8.52-.866-14.282-8.482-13.46-16.4.874-8.596 8.824-14.94 17.86-13.24 7.97 1.654 12.744 8.929 12 16.19z"/></g></svg>
